<?xml version="1.0" encoding="UTF-8" standalone="no"?>
<!-- Created with Inkscape (http://www.inkscape.org/) -->

<svg
   xmlns:dc="http://purl.org/dc/elements/1.1/"
   xmlns:cc="http://creativecommons.org/ns#"
   xmlns:rdf="http://www.w3.org/1999/02/22-rdf-syntax-ns#"
   xmlns:svg="http://www.w3.org/2000/svg"
   xmlns="http://www.w3.org/2000/svg"
   xmlns:sodipodi="http://sodipodi.sourceforge.net/DTD/sodipodi-0.dtd"
   xmlns:inkscape="http://www.inkscape.org/namespaces/inkscape"
   width="202.89912mm"
   height="192.69803mm"
   viewBox="0 0 202.89912 192.69803"
   version="1.1"
   id="svg864"
   inkscape:version="0.92.3 (2405546, 2018-03-11)"
   sodipodi:docname="dessin.svg">
  <defs
     id="defs858" />
  <sodipodi:namedview
     id="base"
     pagecolor="#ffffff"
     bordercolor="#666666"
     borderopacity="1.0"
     inkscape:pageopacity="0.0"
     inkscape:pageshadow="2"
     inkscape:zoom="0.7"
     inkscape:cx="253.20013"
     inkscape:cy="259.66375"
     inkscape:document-units="mm"
     inkscape:current-layer="layer1"
     showgrid="false"
     fit-margin-left="0"
     fit-margin-top="0"
     fit-margin-right="0"
     fit-margin-bottom="0"
     inkscape:window-width="1920"
     inkscape:window-height="1005"
     inkscape:window-x="0"
     inkscape:window-y="49"
     inkscape:window-maximized="1" />
  <metadata
     id="metadata861">
    <rdf:RDF>
      <cc:Work
         rdf:about="">
        <dc:format>image/svg+xml</dc:format>
        <dc:type
           rdf:resource="http://purl.org/dc/dcmitype/StillImage" />
        <dc:title></dc:title>
      </cc:Work>
    </rdf:RDF>
  </metadata>
  <g
     inkscape:label="Calque 1"
     inkscape:groupmode="layer"
     id="layer1"
     transform="translate(-4.0057926,-6.371223)">
    <rect
       style="fill:none;fill-opacity:1;stroke:none;stroke-width:3.34605575;stroke-linecap:butt;stroke-linejoin:miter;stroke-miterlimit:4;stroke-dasharray:none;stroke-dashoffset:10;stroke-opacity:1;paint-order:stroke fill markers"
       id="rect1453"
       width="202.89912"
       height="192.69803"
       x="4.0057926"
       y="6.371223" />
    <path
       style="color:#000000;font-style:normal;font-variant:normal;font-weight:normal;font-stretch:normal;font-size:medium;line-height:normal;font-family:sans-serif;font-variant-ligatures:normal;font-variant-position:normal;font-variant-caps:normal;font-variant-numeric:normal;font-variant-alternates:normal;font-feature-settings:normal;text-indent:0;text-align:start;text-decoration:none;text-decoration-line:none;text-decoration-style:solid;text-decoration-color:#000000;letter-spacing:normal;word-spacing:normal;text-transform:none;writing-mode:lr-tb;direction:ltr;text-orientation:mixed;dominant-baseline:auto;baseline-shift:baseline;text-anchor:start;white-space:normal;shape-padding:0;clip-rule:nonzero;display:inline;overflow:visible;visibility:visible;opacity:1;isolation:auto;mix-blend-mode:normal;color-interpolation:sRGB;color-interpolation-filters:linearRGB;solid-color:#000000;solid-opacity:1;vector-effect:none;fill:#ffffff;fill-opacity:1;fill-rule:nonzero;stroke:none;stroke-width:1.96836102;stroke-linecap:butt;stroke-linejoin:miter;stroke-miterlimit:4;stroke-dasharray:none;stroke-dashoffset:0;stroke-opacity:1;color-rendering:auto;image-rendering:auto;shape-rendering:auto;text-rendering:auto;enable-background:accumulate"
       d="m 129.339,154.01753 c 0.5047,2.89904 0.49698,6.63198 4.05384,7.4161 5.39458,2.03523 12.34616,0.65377 16.45588,5.55578 2.16535,2.30336 3.94263,6.95545 0.54055,8.99241 -3.86713,1.13462 -7.9533,0.89843 -11.94143,1.05976 0.0415,-3.62507 4.37774,-1.45753 6.75314,-2.24256 2.31426,-0.0346 6.77677,-0.36188 5.40612,-3.74633 -1.89129,-5.86309 -8.69894,-7.14794 -14.1014,-7.3755 -3.61444,-0.11464 -8.49776,-1.83406 -8.2707,-6.18356 -0.003,-1.68781 -1.85206,-3.85433 1.104,-3.4761 z"
       id="path875"
       inkscape:connector-curvature="0" />
    <path
       style="color:#000000;font-style:normal;font-variant:normal;font-weight:normal;font-stretch:normal;font-size:medium;line-height:normal;font-family:sans-serif;font-variant-ligatures:normal;font-variant-position:normal;font-variant-caps:normal;font-variant-numeric:normal;font-variant-alternates:normal;font-feature-settings:normal;text-indent:0;text-align:start;text-decoration:none;text-decoration-line:none;text-decoration-style:solid;text-decoration-color:#000000;letter-spacing:normal;word-spacing:normal;text-transform:none;writing-mode:lr-tb;direction:ltr;text-orientation:mixed;dominant-baseline:auto;baseline-shift:baseline;text-anchor:start;white-space:normal;shape-padding:0;clip-rule:nonzero;display:inline;overflow:visible;visibility:visible;opacity:1;isolation:auto;mix-blend-mode:normal;color-interpolation:sRGB;color-interpolation-filters:linearRGB;solid-color:#000000;solid-opacity:1;vector-effect:none;fill:#ffffff;fill-opacity:1;fill-rule:nonzero;stroke:none;stroke-width:1.67310691;stroke-linecap:butt;stroke-linejoin:miter;stroke-miterlimit:4;stroke-dasharray:none;stroke-dashoffset:0;stroke-opacity:1;color-rendering:auto;image-rendering:auto;shape-rendering:auto;text-rendering:auto;enable-background:accumulate"
       d="m 41.883731,101.38535 c -9.239556,0.0119 -17.404399,7.54003 -19.329639,16.40741 -1.657187,7.01021 -0.18683,15.7119 5.964489,20.12912 5.549366,3.70975 12.81213,2.87759 18.480082,-0.1348 4.466243,-1.44287 8.692872,-4.47701 13.516697,-4.22453 4.87103,2.57615 3.492762,8.97016 6.33117,12.86397 4.528357,4.39523 11.19732,1.73943 16.552394,0.73499 2.609879,-0.68721 5.824006,-0.56507 6.218788,-3.92636 -0.852913,-3.7698 -0.267052,-8.09744 -3.13073,-11.08763 -5.84839,1.80838 -11.063552,5.35948 -16.992222,6.83762 -2.474489,-1.93666 -2.196459,-5.9624 -4.408664,-8.31322 -2.273999,-4.34835 -8.606126,-4.65853 -12.402143,-2.18325 -6.020563,3.53104 -12.62127,9.18192 -20.053394,6.669 -4.328358,-1.0767 -6.305553,-5.37822 -6.541773,-9.49258 -1.152997,-7.23013 2.69368,-14.85678 9.322994,-18.0864 4.546471,-2.99059 11.687815,-2.45672 14.247102,2.86517 1.971262,4.40549 0.986327,10.55792 -2.77912,13.71152 -1.323465,-2.52016 0.844803,-5.52923 0.766587,-8.27096 0.42403,-1.6383 1.091045,-6.49096 -1.515743,-4.70174 0.200687,3.82097 -1.6566,0.56916 -3.242144,-0.51383 -6.844828,-2.4307 -13.652656,4.54108 -13.942354,11.16584 -0.668363,4.23047 1.33332,10.23956 6.510843,9.80871 2.762109,0.0552 4.89703,-2.06461 6.584121,-4.0053 1.995668,2.66142 5.940193,2.18812 7.618556,-0.56031 5.588569,-5.67848 6.260063,-15.79855 1.289706,-22.0502 -2.352625,-2.52796 -5.670469,-3.6213 -9.065603,-3.64224 z m -0.112598,1.2322 c 5.073496,-0.13463 10.228314,3.17769 10.912759,8.45915 1.62234,6.06841 -0.256259,13.56019 -5.854249,16.93942 -2.890882,1.93253 -4.234143,-4.38309 -6.180971,-1.28871 -1.737003,3.1826 -6.402598,5.36784 -9.147789,2.12542 -4.242046,-6.49659 0.604502,-17.07772 8.496036,-17.65964 4.59133,0.41399 7.002492,5.89802 5.282631,9.92835 -1.029504,1.76524 0.02252,6.0964 2.425761,3.76089 3.54114,-3.73803 4.991659,-9.99162 2.879401,-14.79699 -2.598336,-5.34592 -9.540364,-6.7848 -14.541994,-4.02139 -6.270886,2.91636 -11.052022,8.97194 -11.340285,16.02916 -0.07627,5.08698 0.829224,11.93002 6.54466,13.66416 7.241449,3.40778 14.56721,-1.78098 20.616421,-5.40924 3.288075,-2.2992 8.245404,-3.75775 11.359259,-0.39914 2.892422,2.60924 2.92876,7.05267 5.534356,9.69839 3.344603,1.6928 6.844326,-1.17147 10.180936,-1.80851 2.594208,-0.90818 5.20727,-1.76012 7.820594,-2.61128 0.252936,2.83407 1.1992,5.81455 1.044279,8.5625 -5.823874,1.42893 -11.702733,3.86352 -17.780289,3.21844 -5.184354,-1.95782 -3.588684,-8.67017 -6.7173,-12.36419 -3.00905,-4.19764 -8.869412,-1.93 -12.640169,-0.007 -5.869126,2.7045 -12.606467,6.64089 -19.077542,3.43082 -7.875545,-2.80196 -9.733911,-12.55528 -8.129758,-19.86385 1.663239,-7.54165 8.146744,-13.84139 15.62587,-15.45057 0.895794,-0.0452 1.791589,-0.0905 2.687383,-0.13573 z"
       id="path917"
       inkscape:connector-curvature="0" />
    <path
       style="color:#000000;font-style:normal;font-variant:normal;font-weight:normal;font-stretch:normal;font-size:medium;line-height:normal;font-family:sans-serif;font-variant-ligatures:normal;font-variant-position:normal;font-variant-caps:normal;font-variant-numeric:normal;font-variant-alternates:normal;font-feature-settings:normal;text-indent:0;text-align:start;text-decoration:none;text-decoration-line:none;text-decoration-style:solid;text-decoration-color:#000000;letter-spacing:normal;word-spacing:normal;text-transform:none;writing-mode:lr-tb;direction:ltr;text-orientation:mixed;dominant-baseline:auto;baseline-shift:baseline;text-anchor:start;white-space:normal;shape-padding:0;clip-rule:nonzero;display:inline;overflow:visible;visibility:visible;opacity:1;isolation:auto;mix-blend-mode:normal;color-interpolation:sRGB;color-interpolation-filters:linearRGB;solid-color:#000000;solid-opacity:1;vector-effect:none;fill:#ffffff;fill-opacity:1;fill-rule:nonzero;stroke:none;stroke-width:1.96836102;stroke-linecap:butt;stroke-linejoin:miter;stroke-miterlimit:4;stroke-dasharray:none;stroke-dashoffset:0;stroke-opacity:1;color-rendering:auto;image-rendering:auto;shape-rendering:auto;text-rendering:auto;enable-background:accumulate"
       d="m 73.784233,21.601385 c -6.423906,-2.4086 -13.554244,0.9098 -17.229368,6.40695 -8.556508,11.36441 -14.188533,24.802252 -17.02383,38.703383 -1.916721,12.12187 4.30187,25.048967 14.955895,31.079504 8.230568,3.854618 17.851575,1.988579 26.183359,-0.595501 2.475522,0.297519 5.526305,-4.318852 6.753098,-1.871265 2.194148,2.827004 5.077138,5.084074 8.234501,6.762934 -5.926016,7.92206 -7.870156,17.92442 -9.532787,27.45896 -0.433224,6.1464 -0.516647,12.5401 1.071877,18.51917 0.907653,4.70011 5.518343,6.66852 9.669309,7.70812 1.449332,2.66675 0.11516,6.00123 0.39179,8.93335 -4.702278,2.11487 -11.763206,2.06678 -13.444503,8.05283 -1.908157,3.28725 0.801621,8.06678 4.756885,7.23692 14.976471,0.13157 29.975551,0.17076 44.943361,-0.0866 4.10026,0.14424 7.38926,-3.87447 6.91228,-7.83468 0.26974,-4.38572 -5.38538,-4.31531 -8.3442,-5.50468 -3.81159,-0.85986 -7.63444,-1.72787 -11.50373,-2.29877 0.46676,-2.2366 -1.45144,-6.83404 0.58693,-7.51491 4.23431,-0.56899 8.45119,-1.93596 12.64201,-2.89045 5.83725,-1.27217 9.38707,-7.03893 10.28272,-12.58381 0.97952,-8.83732 0.0575,-18.40281 -5.4716,-25.70608 -2.25778,-3.89983 -2.51161,-8.50247 -2.7846,-12.89741 12.73046,-4.537634 23.3134,-13.754979 31.95805,-23.930391 3.05309,-4.222531 6.66693,-8.482748 7.4014,-13.817195 -7.64203,1.923481 -16.12405,1.636797 -22.92087,-2.697086 -2.75757,-2.871068 -3.49091,1.963748 -5.40517,3.380428 -4.95299,5.94097 -14.14644,6.942309 -20.94299,3.741719 -6.19718,-1.878193 -10.08614,-10.562442 -5.41614,-15.752453 1.82698,-2.871163 5.23784,-5.332939 4.07795,-9.190304 -1.04344,-3.388635 3.8505,-3.078406 6.07405,-3.419398 5.8892,-0.189369 11.91197,1.726316 16.61828,5.260665 0.34179,-1.919806 -4.11077,-3.191992 -6.04312,-4.138301 -5.35366,-1.958388 -11.3208,-2.907378 -16.79423,-0.842679 -0.0393,-4.685529 -0.79322,-9.47573 -0.27537,-14.07424 -1.13938,-1.84902 -4.35926,-0.81081 -6.20925,-2.14264 -8.40437,-2.64587 -17.60638,-4.05809 -26.114624,-1.00665 -2.978391,0.27853 -5.81819,4.04577 -8.557877,1.59613 -3.024846,-1.6521 -6.222219,-2.98401 -9.499486,-4.04557 z m -3.927303,2.39761 c 7.730014,1.03256 15.328831,4.68154 20.055403,11.03068 3.354565,3.497181 5.855537,7.688747 8.816073,11.468468 2.198234,-0.823528 -1.543846,-4.816618 -2.673678,-6.401993 -2.81355,-3.647645 -5.635916,-7.309994 -8.866624,-10.601895 8.036941,-6.95508 19.557676,-5.29721 29.081566,-3.03872 2.03824,1.14927 6.55733,0.67487 6.03891,3.88641 0.30349,5.12032 0.0977,10.292071 1.26395,15.294468 -0.56224,4.907655 -6.52284,7.954131 -5.87135,13.306739 0.21467,7.17454 6.64578,12.318955 13.29736,13.50032 7.38316,1.797002 16.14143,-1.532086 19.58388,-8.53534 4.38409,1.461829 8.67073,3.108873 13.32316,3.55727 3.22676,0.512228 6.43097,0.06538 9.5257,-0.91871 -4.44796,10.543069 -12.78434,19.11504 -21.84885,25.924563 -6.381,4.332629 -13.36524,9.496525 -21.50392,8.774115 -4.74105,-0.53753 -2.5111,1.35926 0.85354,1.33535 3.83228,-0.76911 3.45688,2.94538 3.82518,5.66648 0.0788,4.94658 2.82294,9.02681 4.98089,13.2448 2.98438,6.41269 2.42838,13.78732 1.9107,20.65485 -1.14604,5.15369 -4.72852,10.03663 -10.22359,10.86995 -3.87329,0.78534 -7.7616,1.89976 -11.57947,2.58519 -2.29163,1.8202 -0.52602,5.46302 -0.97051,8.02728 -0.49576,3.62943 4.00085,1.96061 6.13436,3.03223 4.43053,1.12205 9.43728,1.24819 13.28268,3.84422 1.67383,3.78545 -1.83123,8.02905 -5.87234,7.7188 -14.53552,0.2998 -29.0958,0.44541 -43.618361,-0.37851 -4.266089,-1.23658 -1.700334,-7.12633 1.21939,-8.43892 2.571581,-2.12124 6.641,-1.69831 9.102371,-3.44856 1.01686,-3.10874 0.538366,-6.51301 0.94364,-9.74262 2.39028,1.03716 6.30969,-1.63123 1.92224,-1.69822 -5.119236,-0.40245 -11.355693,-3.19306 -11.371954,-9.11791 -1.262896,-12.83543 0.625218,-26.04031 5.63726,-37.9595 0.30258,-2.17881 3.480171,-5.5007 1.330899,-6.99488 C 93.786646,98.841932 89.93817,96.333354 88.095969,92.545082 89.674031,90.3723 91.803776,88.5568 92.921315,86.085772 90.491229,86.073412 89.127241,89.85527 87.17016,91.394504 81.315899,96.233937 73.372814,97.32841 66.04035,97.956271 56.244197,98.082459 48.325552,89.955107 45.669206,81.023086 44.014083,77.420694 43.464202,73.183789 45.989597,69.84561 51.14507,60.072701 62.430629,55.931321 72.813305,54.648049 c 2.144035,-0.05557 6.998255,-1.283991 6.586072,2.010381 0.544986,5.415058 6.171533,10.873219 11.744124,8.31578 3.09001,-1.37069 5.931468,-4.903023 5.502346,-8.476718 -11.75934,-6.968096 -26.595237,-5.976408 -38.993387,-1.291865 -5.559734,2.398829 -10.992354,5.662025 -14.245452,10.941695 3.289848,-12.139139 7.50253,-24.203554 14.782837,-34.580067 2.412524,-4.30248 6.439567,-7.88197 11.667085,-7.56826 z"
       id="path830"
       inkscape:connector-curvature="0" />
    <path
       style="color:#000000;font-style:normal;font-variant:normal;font-weight:normal;font-stretch:normal;font-size:medium;line-height:normal;font-family:sans-serif;font-variant-ligatures:normal;font-variant-position:normal;font-variant-caps:normal;font-variant-numeric:normal;font-variant-alternates:normal;font-feature-settings:normal;text-indent:0;text-align:start;text-decoration:none;text-decoration-line:none;text-decoration-style:solid;text-decoration-color:#000000;letter-spacing:normal;word-spacing:normal;text-transform:none;writing-mode:lr-tb;direction:ltr;text-orientation:mixed;dominant-baseline:auto;baseline-shift:baseline;text-anchor:start;white-space:normal;shape-padding:0;clip-rule:nonzero;display:inline;overflow:visible;visibility:visible;opacity:1;isolation:auto;mix-blend-mode:normal;color-interpolation:sRGB;color-interpolation-filters:linearRGB;solid-color:#000000;solid-opacity:1;vector-effect:none;fill:#ffffff;fill-opacity:1;fill-rule:nonzero;stroke:none;stroke-width:1.96416295;stroke-linecap:butt;stroke-linejoin:miter;stroke-miterlimit:4;stroke-dasharray:none;stroke-dashoffset:0;stroke-opacity:1;color-rendering:auto;image-rendering:auto;shape-rendering:auto;text-rendering:auto;enable-background:accumulate"
       d="m 166.75075,34.517746 c -6.8941,0.494259 -13.7103,3.68457 -18.52951,8.632204 -5.79784,6.719676 -3.24721,18.787179 5.35258,21.867284 5.60383,2.56196 12.26773,3.822845 18.24889,2.165075 6.9878,-2.271305 11.68715,-9.243695 13.18337,-16.177043 1.07728,-6.120858 -2.19912,-12.7929 -8.26348,-14.80815 -3.13592,-1.31278 -6.64485,-1.365271 -9.99185,-1.67937 z m 0.0303,2.00391 c 6.17164,0.185359 14.12691,1.532669 16.29984,8.283425 2.30817,6.401996 -1.85907,13.151397 -6.21941,17.621155 -6.03468,5.144193 -15.09525,3.994062 -21.70543,0.624877 -6.65949,-2.681007 -9.38136,-12.147005 -4.95176,-17.772741 4.07792,-4.839304 10.12205,-8.576816 16.57676,-8.756716 z"
       id="path862"
       inkscape:connector-curvature="0" />
    <path
       style="fill:#ffffff;stroke:none;stroke-width:0.29612482px;stroke-linecap:butt;stroke-linejoin:miter;stroke-opacity:1"
       d="m 114.47297,48.266614 c 1.52555,-2.486595 2.48157,-5.825697 5.3916,-7.013212 2.70906,0.809726 2.22465,4.621338 0.10242,5.896801 -1.91227,2.144211 -3.42183,5.566158 -6.1968,6.388189 -1.17696,-1.554549 -0.007,-3.763005 0.70278,-5.271778 z"
       id="path867"
       inkscape:connector-curvature="0" />
    <path
       style="fill:#ffffff;fill-opacity:1;stroke:none;stroke-width:1.63221705;stroke-linecap:butt;stroke-linejoin:miter;stroke-miterlimit:4;stroke-dasharray:none;stroke-dashoffset:10;stroke-opacity:1;paint-order:normal"
       d="m 142.74896,50.475287 c 0.31385,3.980037 -5.96395,4.929695 -6.72675,0.9609 -1.29159,-3.641764 4.28456,-6.42602 6.18366,-2.901757 0.35614,0.580219 0.54381,1.260621 0.54309,1.940857 z"
       id="path873"
       inkscape:connector-curvature="0" />
    <path
       style="fill:#ffffff;stroke:none;stroke-width:0.26423207px;stroke-linecap:butt;stroke-linejoin:miter;stroke-opacity:1"
       d="m 122.21991,29.604015 c -1.77507,2.88792 -3.68728,6.65722 -2.4821,10.038228 2.07848,0.586731 7.07983,1.445083 6.09018,-2.124117 -0.48956,-2.54952 0.55511,-5.80758 -1.01652,-7.905751 -0.87729,-0.85249 -1.63697,-0.50529 -2.59156,-0.008 z"
       id="path894"
       inkscape:connector-curvature="0" />
    <path
       style="color:#000000;font-style:normal;font-variant:normal;font-weight:normal;font-stretch:normal;font-size:medium;line-height:normal;font-family:sans-serif;font-variant-ligatures:normal;font-variant-position:normal;font-variant-caps:normal;font-variant-numeric:normal;font-variant-alternates:normal;font-feature-settings:normal;text-indent:0;text-align:start;text-decoration:none;text-decoration-line:none;text-decoration-style:solid;text-decoration-color:#000000;letter-spacing:normal;word-spacing:normal;text-transform:none;writing-mode:lr-tb;direction:ltr;text-orientation:mixed;dominant-baseline:auto;baseline-shift:baseline;text-anchor:start;white-space:normal;shape-padding:0;clip-rule:nonzero;display:inline;overflow:visible;visibility:visible;opacity:1;isolation:auto;mix-blend-mode:normal;color-interpolation:sRGB;color-interpolation-filters:linearRGB;solid-color:#000000;solid-opacity:1;vector-effect:none;fill:#ffffff;fill-opacity:1;fill-rule:nonzero;stroke:none;stroke-width:1.78929007;stroke-linecap:butt;stroke-linejoin:miter;stroke-miterlimit:4;stroke-dasharray:none;stroke-dashoffset:0;stroke-opacity:1;color-rendering:auto;image-rendering:auto;shape-rendering:auto;text-rendering:auto;enable-background:accumulate"
       d="m 38.386133,113.71478 c -5.29239,1.84481 -8.844278,9.64946 -4.888032,14.20574 4.531616,1.6569 6.761697,-3.86955 8.354987,-7.08244 0.571668,-2.20362 2.798038,-5.93171 -0.641165,-6.80624 -0.891473,-0.36206 -1.876402,-0.56995 -2.82579,-0.31706 z m -0.0316,1.06779 c 3.692613,-0.36784 3.089128,2.89821 1.862099,5.18284 -1.266576,2.57106 -2.145562,7.17667 -5.753527,6.96255 -2.615989,-2.00256 -1.390535,-6.48032 0.186788,-8.90327 0.871551,-1.46476 2.126904,-2.58091 3.70464,-3.24212 z"
       id="path919"
       inkscape:connector-curvature="0" />
    <path
       style="color:#000000;font-style:normal;font-variant:normal;font-weight:normal;font-stretch:normal;font-size:medium;line-height:normal;font-family:sans-serif;font-variant-ligatures:normal;font-variant-position:normal;font-variant-caps:normal;font-variant-numeric:normal;font-variant-alternates:normal;font-feature-settings:normal;text-indent:0;text-align:start;text-decoration:none;text-decoration-line:none;text-decoration-style:solid;text-decoration-color:#000000;letter-spacing:normal;word-spacing:normal;text-transform:none;writing-mode:lr-tb;direction:ltr;text-orientation:mixed;dominant-baseline:auto;baseline-shift:baseline;text-anchor:start;white-space:normal;shape-padding:0;clip-rule:nonzero;display:inline;overflow:visible;visibility:visible;opacity:1;isolation:auto;mix-blend-mode:normal;color-interpolation:sRGB;color-interpolation-filters:linearRGB;solid-color:#000000;solid-opacity:1;vector-effect:none;fill:#ffffff;fill-opacity:1;fill-rule:nonzero;stroke:none;stroke-width:1.80000019;stroke-linecap:butt;stroke-linejoin:miter;stroke-miterlimit:4;stroke-dasharray:none;stroke-dashoffset:0;stroke-opacity:1;paint-order:normal;color-rendering:auto;image-rendering:auto;shape-rendering:auto;text-rendering:auto;enable-background:accumulate"
       d="m 108.77322,103.16372 c -0.62848,7.8057 -0.17319,15.81194 -1.38133,23.49719 -3.79057,1.11692 -8.551322,2.52246 -10.087701,6.59159 -1.244913,3.6165 2.693926,6.66637 6.012481,5.20082 3.41492,-2.02742 3.45392,1.1109 3.00668,3.73844 -0.52634,3.3915 1.98218,7.13991 5.70767,6.24348 4.239,-0.97356 4.78531,-5.94284 4.43325,-9.59146 1.9032,3.40277 6.82355,4.36874 9.43077,1.2202 3.03196,-2.84369 0.74616,-6.98222 -1.99916,-9.03585 -2.30243,-1.53843 -3.41486,-4.16793 -2.15641,-6.76846 1.47511,-5.02695 3.7205,-10.0738 2.69974,-15.4471 -1.21552,-3.10018 -1.61856,3.12439 -1.18422,4.72391 -0.19887,5.12296 -4.01833,9.8352 -3.08534,14.95281 0.9998,3.54169 7.17373,5.16541 5.24136,9.48366 -1.48554,2.47535 -5.09677,3.6026 -6.92403,0.84836 -1.46213,-2.9447 -4.5348,-2.46755 -3.5838,1.06332 0.29497,2.92879 -0.31524,6.64135 -3.88248,7.01543 -3.45335,0.69723 -2.81591,-3.92746 -2.86118,-6.07367 0.51427,-2.27437 -0.0235,-6.12806 -3.21365,-4.53006 -2.06791,0.79424 -6.198856,1.54402 -6.118822,-1.74371 0.431874,-4.25317 5.611122,-5.1409 8.978872,-6.20516 2.91411,-1.50794 1.42889,-5.56504 2.02296,-8.22921 0.0632,-5.81627 0.0576,-11.63306 -0.005,-17.44931 -0.35014,0.16493 -0.70029,0.32986 -1.05042,0.49478 z"
       id="path120"
       inkscape:connector-curvature="0" />
    <path
       style="fill:#ffffff;fill-opacity:1;stroke:none;stroke-width:1.07053053;stroke-linecap:butt;stroke-linejoin:miter;stroke-miterlimit:4;stroke-dasharray:none;stroke-dashoffset:10;stroke-opacity:1;paint-order:normal"
       d="m 155.26107,81.704089 c -0.22708,2.386164 -5.45932,1.278975 -3.56002,-0.863454 1.02707,-0.788175 3.32159,-0.671174 3.56002,0.863454 z"
       id="path927"
       inkscape:connector-curvature="0" />
  </g>
</svg>
